<?xml version="1.0" encoding="UTF-8"?>
<svg height="128px" viewBox="0 0 128 128" width="128px" xmlns="http://www.w3.org/2000/svg" xmlns:xlink="http://www.w3.org/1999/xlink">
    <linearGradient id="a" gradientTransform="matrix(0.936075 0 0 1.139123 3.717285 -1.053072)" gradientUnits="userSpaceOnUse" x1="19" x2="109.799004" y1="97.288696" y2="97.288696">
        <stop offset="0.01" stop-color="#282828"/>
        <stop offset="0.05" stop-color="#5e5c64"/>
        <stop offset="0.1" stop-color="#282828"/>
        <stop offset="0.5" stop-color="#282828"/>
        <stop offset="0.9" stop-color="#282828"/>
        <stop offset="0.95" stop-color="#5e5c64"/>
        <stop offset="0.99" stop-color="#282828"/>
    </linearGradient>
    <linearGradient id="b" gradientTransform="matrix(0.797292 0 0 0.965829 12.654433 -1.073004)" gradientUnits="userSpaceOnUse" x1="27.658381" x2="101.358101" y1="25.813965" y2="86.653099">
        <stop offset="0.231733" stop-color="#5ee5ff"/>
        <stop offset="0.896271" stop-color="#0086f9"/>
    </linearGradient>
    <path d="m 28.039062 8.660156 h 71.921876 c 3.609374 0 6.535156 3.5625 6.535156 7.957032 v 87.5625 c 0 4.394531 -2.925782 7.957031 -6.535156 7.957031 h -71.921876 c -3.609374 0 -6.535156 -3.5625 -6.535156 -7.957031 v -87.5625 c 0 -4.394532 2.925782 -7.957032 6.535156 -7.957032 z m 0 0" fill="#5e5c64"/>
    <path d="m 21.503906 100.199219 v 11.1875 c 0 4.40625 2.914063 7.953125 6.535156 7.953125 h 71.921876 c 3.621093 0 6.535156 -3.546875 6.535156 -7.953125 v -11.1875 c 0 4.410156 -2.914063 7.957031 -6.535156 7.957031 h -71.921876 c -3.621093 0 -6.535156 -3.546875 -6.535156 -7.957031 z m 0 0" fill="url(#a)"/>
    <path d="m 64 19.585938 c -3.230469 0 -5.863281 2.632812 -5.863281 5.863281 v 50.34375 l -13.445313 -13.445313 c -1.097656 -1.097656 -2.589844 -1.71875 -4.144531 -1.71875 c -1.558594 0 -3.046875 0.621094 -4.148437 1.71875 c -2.289063 2.289063 -2.289063 6 0 8.292969 l 23.457031 23.453125 c 2.289062 2.289062 6 2.289062 8.289062 0 l 23.457031 -23.453125 c 2.289063 -2.292969 2.289063 -6.003906 0 -8.292969 c -2.292968 -2.289062 -6.003906 -2.289062 -8.292968 0 l -13.445313 13.445313 v -50.34375 c 0 -3.230469 -2.632812 -5.863281 -5.863281 -5.863281 z m 0 0" fill="url(#b)"/>
</svg>
