<?xml version="1.0" encoding="UTF-8"?>
<svg height="16px" viewBox="0 0 16 16" width="16px" xmlns="http://www.w3.org/2000/svg">
    <path d="m 8 0.734375 c -0.617188 0 -1.117188 0.5 -1.117188 1.117187 v 9.597657 l -2.5625 -2.5625 c -0.210937 -0.210938 -0.496093 -0.328125 -0.792968 -0.328125 s -0.578125 0.117187 -0.789063 0.328125 c -0.4375 0.4375 -0.4375 1.144531 0 1.582031 l 4.472657 4.46875 c 0.433593 0.4375 1.144531 0.4375 1.578124 0 l 4.472657 -4.46875 c 0.4375 -0.4375 0.4375 -1.144531 0 -1.582031 s -1.144531 -0.4375 -1.582031 0 l -2.5625 2.5625 v -9.597657 c 0 -0.617187 -0.5 -1.117187 -1.117188 -1.117187 z m 0 0" fill="#241f31"/>
</svg>
